<svg width="16" height="16" viewBox="0 0 16 16" fill="none" xmlns="http://www.w3.org/2000/svg">
<g id="Icon/Add">
<path id="Union" fill-rule="evenodd" clip-rule="evenodd" d="M8.37516 3.33333C8.37516 3.12623 8.20727 2.95833 8.00016 2.95833C7.79306 2.95833 7.62516 3.12623 7.62516 3.33333V7.625H3.3335C3.12639 7.625 2.9585 7.79289 2.9585 8C2.9585 8.20711 3.12639 8.375 3.3335 8.375H7.62516V12.6667C7.62516 12.8738 7.79306 13.0417 8.00016 13.0417C8.20727 13.0417 8.37516 12.8738 8.37516 12.6667V8.375H12.6668C12.8739 8.375 13.0418 8.20711 13.0418 8C13.0418 7.79289 12.8739 7.625 12.6668 7.625H8.37516V3.33333Z" fill="#121212"/>
</g>
</svg>
